# xmcd
#
# Track frame offsets:
# 150
# 25070
# 47451
# 70069
# 96407
# 116817
# 141058
# 162917
# 183518
# 204408
#
# Disc length: 2993 seconds
#
#
# Revision: 0
# Processed by: cddbd v1.5.1PL0 Copyright (c) Steve Scherf et al.
# Submitted via: FreeRIP 2.942 
#
DISCID=860baf0a
DTITLE=Body and Soul: No Control 
DYEAR=1900
DGENRE=
TTITLE0=Bump 'N' Grind - R. Kelly
TTITLE1=Do Me Again - Freddie Jackson
TTITLE2=I'll Make Love to You - Boyz II Men
TTITLE3=All Things (Your Man Won't Do) - Joe
TTITLE4=Crazy Love - Brian McKnight
TTITLE5=Tell Me What You Want to Do - Tevin Campbell
TTITLE6=Ready or Not - After 7
TTITLE7=It's All About You - Luther Vandross
TTITLE8=Every Time I Close My Eyes - Babyface
TTITLE9=I Like the Way (The Kissing Game) - Hi-Five
EXTD=
EXTT0=
EXTT1=
EXTT2=
EXTT3=
EXTT4=
EXTT5=
EXTT6=
EXTT7=
EXTT8=
EXTT9=
PLAYORDER=
